<?xml version="1.0" encoding="UTF-8"?>
<!DOCTYPE svg PUBLIC "-//W3C//DTD SVG 1.1 Tiny//EN" "http://www.w3.org/Graphics/SVG/1.1/DTD/svg11-tiny.dtd">
<svg width="100%" height="100%" viewBox="0 0 88 88">
<linearGradient id="_16" gradientUnits="userSpaceOnUse" x1="42.15" y1="46" x2="58.62" y2="78.43">
<stop stop-color="#A2C2DD" offset="0.1"/>
<stop stop-color="#6C83BB" offset="0.71"/>
<stop stop-color="#003D6D" offset="0.99"/>
</linearGradient>
<path fill="url(#_16)" d="M31.763,14.056l0.14,7.126l-2.095,0.698l0.985,5.623l-3.374,47.313 c8.046,12.167,27.262,9.969,33.093-0.528l-4.698-47.42l1.033-5.787l-1.953-0.406l0.102-7.213L42.929,4.587L31.763,14.056z"/>
<linearGradient id="_17" gradientUnits="userSpaceOnUse" x1="24.41" y1="54.57" x2="68.41" y2="54.57">
<stop stop-color="#FFFFFF" offset="0"/>
<stop stop-color="#A2C2DD" offset="0.35"/>
<stop stop-color="#6C83BB" offset="0.7"/>
<stop stop-color="#003D6D" offset="1"/>
</linearGradient>
<path fill="url(#_17)" d="M31.497,27.468l-3.362,47.148c6.784,10.051,24.6,10.625,31.658-0.483l-4.735-47.301 L31.497,27.468z"/>
<linearGradient id="_18" gradientUnits="userSpaceOnUse" x1="28.41" y1="42.61" x2="76.66" y2="42.61">
<stop stop-color="#E6EEF4" offset="0"/>
<stop stop-color="#575AC6" offset="0.44"/>
<stop stop-color="#003D6D" offset="0.94"/>
</linearGradient>
<path fill="url(#_18)" d="M56.81,44.608l-0.962-9.832c-5.548,7.959-20.328,6.802-24.896,0.4l-0.707,9.79 C38.02,52.629,50.138,52.005,56.81,44.608z"/>
<linearGradient id="_19" gradientUnits="userSpaceOnUse" x1="28.41" y1="62.89" x2="76.66" y2="62.89">
<stop stop-color="#E6EEF4" offset="0"/>
<stop stop-color="#575AC6" offset="0.44"/>
<stop stop-color="#003D6D" offset="0.94"/>
</linearGradient>
<path fill="url(#_19)" d="M58.782,64.331l-0.913-9.328c-10.027,10.121-24.347,5.465-28.28-0.294l-0.725,9.64 C39.175,75.736,53.395,70.499,58.782,64.331z"/>
<linearGradient id="_20" gradientUnits="userSpaceOnUse" x1="7.69" y1="18.09" x2="58.02" y2="60.59">
<stop stop-color="#A2C2DD" offset="0.1"/>
<stop stop-color="#6C83BB" offset="0.71"/>
<stop stop-color="#003D6D" offset="0.99"/>
</linearGradient>
<path fill-opacity="0.2" fill="url(#_20)" d="M46.749,29.609l2.183,40.648c0,0,1.005,8.438-3.289,11.941 c5.612-0.146,11.949-3.967,14.15-8.066l-4.884-48.222L46.749,29.609z"/>
<polygon fill="#FFFFFF" points="35.842,32.35 39.324,33.851 39.283,38.504 35.882,36.843 "/>
<polygon fill="#FFFFFF" points="35.207,51.374 38.607,52.987 38.526,57.994 35.125,56.219 "/>
<polygon fill="#FFFFFF" points="38.123,78.503 38.283,73.336 34.723,71.722 34.641,76.485 "/>
<linearGradient id="_21" gradientUnits="userSpaceOnUse" x1="41.84" y1="23.51" x2="55.61" y2="18.86">
<stop stop-color="#FFFFFF" offset="0.15"/>
<stop stop-color="#A2C2DD" offset="1"/>
</linearGradient>
<polygon fill="url(#_21)" points="56.038,21.628 41.723,18.646 30.602,22.354 44.895,27.441 "/>
<linearGradient id="_22" gradientUnits="userSpaceOnUse" x1="58.2" y1="10.84" x2="42.42" y2="25.98">
<stop stop-color="#FFFFFF" offset="0"/>
<stop stop-color="#A2C2DD" offset="0.35"/>
<stop stop-color="#6C83BB" offset="0.7"/>
<stop stop-color="#003D6D" offset="1"/>
</linearGradient>
<polygon fill="url(#_22)" points="44.563,17.068 54.29,13.813 54.182,21.547 44.463,26.324 "/>
<linearGradient id="_23" gradientUnits="userSpaceOnUse" x1="39.28" y1="38.89" x2="38.53" y2="15.89">
<stop stop-color="#FFFFFF" offset="0.15"/>
<stop stop-color="#A2C2DD" offset="1"/>
</linearGradient>
<polygon fill="url(#_23)" points="32.469,14.375 44.668,16.911 44.463,26.324 32.622,22.192 "/>
<linearGradient id="_24" gradientUnits="userSpaceOnUse" x1="35.43" y1="4.26" x2="42.18" y2="21">
<stop stop-color="#FFFFFF" offset="0.15"/>
<stop stop-color="#A2C2DD" offset="1"/>
</linearGradient>
<polygon fill="url(#_24)" points="32.469,14.375 44.672,17.708 42.96,5.479 "/>
<linearGradient id="_25" gradientUnits="userSpaceOnUse" x1="50.6" y1="2.79" x2="44.4" y2="24.33">
<stop stop-color="#FFFFFF" offset="0"/>
<stop stop-color="#A2C2DD" offset="0.35"/>
<stop stop-color="#6C83BB" offset="0.7"/>
<stop stop-color="#003D6D" offset="1"/>
</linearGradient>
<polygon fill="url(#_25)" points="44.672,17.708 42.96,5.479 54.29,13.813 "/>
<linearGradient id="_26" gradientUnits="userSpaceOnUse" x1="18.12" y1="30.75" x2="44.93" y2="26.25">
<stop stop-color="#FFFFFF" offset="0.15"/>
<stop stop-color="#A2C2DD" offset="1"/>
</linearGradient>
<polygon fill="url(#_26)" points="44.895,27.441 44.895,32.552 31.497,27.468 30.602,22.354 "/>
<linearGradient id="_27" gradientUnits="userSpaceOnUse" x1="50.89" y1="16.44" x2="49.64" y2="38.69">
<stop stop-color="#FFFFFF" offset="0"/>
<stop stop-color="#A2C2DD" offset="0.35"/>
<stop stop-color="#6C83BB" offset="0.7"/>
<stop stop-color="#003D6D" offset="1"/>
</linearGradient>
<polygon fill="url(#_27)" points="44.832,27.441 44.832,32.552 55.107,26.841 56.038,21.628 "/>
<polygon fill="#FFFFFF" points="33.92,22.619 33.987,15.952 43.203,18.442 43.108,25.821 "/>
<polygon fill="#FFFFFF" points="46.03,25.549 46.012,18.651 53.245,15.823 53.07,22.07 "/>
<polygon fill="#A2C2DD" points="33.948,22.656 33.987,15.952 35.123,16.296 35.084,23.035 "/>
<polygon fill="#A2C2DD" points="46.012,18.651 46.074,25.519 47.272,24.943 47.214,18.189 "/>
<linearGradient id="_28" gradientUnits="userSpaceOnUse" x1="31.51" y1="23.39" x2="45.1" y2="37.71">
<stop stop-color="#A2C2DD" offset="0.1"/>
<stop stop-color="#6C83BB" offset="0.71"/>
<stop stop-color="#003D6D" offset="0.99"/>
</linearGradient>
<polygon fill="url(#_28)" points="31.497,27.468 44.832,32.552 44.821,33.78 31.455,28.208 "/>
<polygon fill="#003D6D" points="55.107,26.841 44.832,32.552 44.821,33.741 55.156,27.725 "/>
<g fill-opacity="0.5" stroke-opacity="0.5">
<linearGradient id="_29" gradientUnits="userSpaceOnUse" x1="6.38" y1="23.02" x2="32.62" y2="23.02">
<stop stop-color="#FFFFFF" offset="0"/>
<stop stop-color="#C0C6E8" offset="1"/>
</linearGradient>
<polygon fill="url(#_29)" points="5.822,5.384 6.071,40.66 43.108,25.821 43.203,18.442 "/>
<linearGradient id="_30" gradientUnits="userSpaceOnUse" x1="85.82" y1="22.82" x2="57.05" y2="22.82">
<stop stop-color="#FFFFFF" offset="0"/>
<stop stop-color="#C0C6E8" offset="1"/>
</linearGradient>
<polygon fill="url(#_30)" points="46.012,18.651 86.274,2.451 86.643,43.188 46.074,25.519 "/>
</g>
<rect fill="none" height="88" width="88"/>
</svg>