<?xml version="1.0" encoding="UTF-8" standalone="no"?>
<!DOCTYPE svg PUBLIC "-//W3C//DTD SVG 1.1 Tiny//EN" "http://www.w3.org/Graphics/SVG/1.1/DTD/svg11-tiny.dtd">
<svg xmlns="http://www.w3.org/2000/svg" xmlns:xlink="http://www.w3.org/1999/xlink" width="42" height="36" viewBox="0 0 42 36">
<rect fill="none" height="36" width="42"/>
<linearGradient id="SVGID_1" gradientUnits="userSpaceOnUse" x1="21.13" y1="18.42" x2="25.21" y2="26.44">
<stop stop-color="#A2C2DD" offset="0.1"/>
<stop stop-color="#6C83BB" offset="0.71"/>
<stop stop-color="#003D6D" offset="0.99"/>
</linearGradient>
<path d="M9.919,20.012c-0.03,0.05-1.706,3.02-2.049,6.236l0.282,1.469l0.035,0.039 c2.285,2.66,7.428,3.494,7.428,3.494s4.832-2.818,6.429-7.583l0.138-1.884c-0.002-0.109-0.073-2.4-0.321-3.81 c0.136-0.128,1.521-1.512,1.521-1.512s2.437-2.316,2.651-2.522c0.8,0.645,2.519,1.63,4.218,2.009l0.066,0.015l0.062-0.03 c1.184-0.586,3.34-3.045,3.547-3.88c0.177-0.7,0.235-1.22,0.19-1.685l0.009-0.029c-0.261-2.641-1.746-4.248-1.988-4.583 c-1.077-0.67-3.352-0.977-3.745-1.006C22.815,6.717,14.876,13.439,9.919,20.012z" fill="url(#SVGID_1)"/>
<linearGradient id="SVGID_2" gradientUnits="userSpaceOnUse" x1="38.85" y1="6.68" x2="22.72" y2="18.8">
<stop stop-color="#E6EEF4" offset="0"/>
<stop stop-color="#4A9900" offset="0.44"/>
<stop stop-color="#0E4E58" offset="0.94"/>
</linearGradient>
<path d="M33.737,10.302l-7.315,3l-0.469,0.448c0.705,0.612,2.874,1.745,4.252,2.055 c1.175-0.504,3.182-2.946,3.373-3.716C33.794,11.228,33.807,10.738,33.737,10.302z" fill="url(#SVGID_2)"/>
<linearGradient id="SVGID_3" gradientUnits="userSpaceOnUse" x1="34.44" y1="12.82" x2="23.12" y2="11.89">
<stop stop-color="#E6EEF4" offset="0"/>
<stop stop-color="#4A9900" offset="0.44"/>
<stop stop-color="#0E4E58" offset="0.94"/>
</linearGradient>
<path d="M29.447,9.845l-3.218,3.318c1.287,0.897,2.83,1.572,3.887,1.861L29.447,9.845z" fill="url(#SVGID_3)"/>
<linearGradient id="SVGID_4" gradientUnits="userSpaceOnUse" x1="35.43" y1="21.71" x2="4.58" y2="30.26">
<stop stop-color="#E6EEF4" offset="0"/>
<stop stop-color="#4A9900" offset="0.44"/>
<stop stop-color="#0E4E58" offset="0.94"/>
</linearGradient>
<path d="M21.756,21.788L8.241,26.192l0.269,1.342c0,0,2.237,2.549,7.147,3.374 c3.281-2.195,5.399-5.396,5.971-7.339L21.756,21.788z" fill="url(#SVGID_4)"/>
<linearGradient id="SVGID_5" gradientUnits="userSpaceOnUse" x1="3.72" y1="21.61" x2="18.19" y2="26.98">
<stop stop-color="#E6EEF4" offset="0"/>
<stop stop-color="#4A9900" offset="0.44"/>
<stop stop-color="#0E4E58" offset="0.94"/>
</linearGradient>
<path d="M8.225,26.192c0.34-3.178,1.986-6.067,1.986-6.067l4.984,1.696l0.142,7.805 C11.516,29.052,9.462,27.395,8.225,26.192z" fill="url(#SVGID_5)"/>
<linearGradient id="SVGID_6" gradientUnits="userSpaceOnUse" x1="30.53" y1="2.71" x2="10.42" y2="24.34">
<stop stop-color="#DCE8E4" offset="0"/>
<stop stop-color="#43910A" offset="1"/>
</linearGradient>
<path d="M10.21,20.125c0.753,0.712,2.789,2.011,4.906,1.823L31.882,6.083 c-1.461-0.812-3.522-0.989-3.522-0.989C22.654,7.5,15.24,13.455,10.21,20.125z" fill="url(#SVGID_6)"/>
<linearGradient id="SVGID_7" gradientUnits="userSpaceOnUse" x1="32.17" y1="7.71" x2="13.3" y2="28.51">
<stop stop-color="#DCE8E4" offset="0"/>
<stop stop-color="#43910A" offset="1"/>
</linearGradient>
<path d="M15.337,29.625c-0.435-1.613-0.614-5.911-0.217-7.727c4.594-6.72,11.205-12.723,16.732-15.845 c0,0,1.56,1.627,1.889,4.239c-0.384,1.651-2.3,3.746-3.629,4.724c-0.177-0.4-0.778-4.89-0.778-4.89 c-1.525,1.998-3.937,4.169-7.882,7.909c0.262,1.386,0.303,3.733,0.303,3.733C20.489,24.825,18.239,27.817,15.337,29.625z" fill="url(#SVGID_7)"/>
</svg>