<?xml version="1.0" encoding="UTF-8"?>
<!DOCTYPE svg PUBLIC "-//W3C//DTD SVG 1.1 Tiny//EN" "http://www.w3.org/Graphics/SVG/1.1/DTD/svg11-tiny.dtd">
<svg baseProfile="tiny" height="60px" version="1.1" viewBox="0 0 60 60" width="60px" x="0px" xmlns="http://www.w3.org/2000/svg" xmlns:xlink="http://www.w3.org/1999/xlink" y="0px">
<g>
<rect fill="none" height="60" width="60"/>
<path d="M39.189,11.974c0-0.55,0.449-1,1-1h8.004c0.551,0,1,0.45,1,1v4.437c0,0.55-0.449,1-1,1h-8.004   c-0.551,0-1-0.45-1-1V11.974z M39.189,37.485c0,0.55,0.449,1,1,1h8.004c0.551,0,1-0.45,1-1v-4.438c0-0.55-0.449-1-1-1h-8.004   c-0.551,0-1,0.45-1,1V37.485z M39.184,26.949c0,0.55,0.451,1,1,1h8.01c0.551,0,1-0.45,1-1V22.51c0-0.55-0.449-1-1-1h-8.01   c-0.549,0-1,0.45-1,1V26.949z M24.965,16.41c0,0.55,0.449,1,1,1h7.992c0.551,0,1-0.45,1-1v-4.437c0-0.55-0.449-1-1-1h-7.992   c-0.551,0-1,0.45-1,1V16.41z M24.965,37.485c0,0.55,0.449,1,1,1h7.992c0.551,0,1-0.45,1-1v-4.438c0-0.55-0.449-1-1-1h-7.992   c-0.551,0-1,0.45-1,1V37.485z M24.965,48.026c0,0.55,0.449,1,1,1h7.992c0.551,0,1-0.45,1-1v-4.444c0-0.55-0.449-1-1-1h-7.992   c-0.551,0-1,0.45-1,1V48.026z M24.961,26.949c0,0.55,0.451,1,1,1h7.996c0.551,0,1-0.45,1-1V22.51c0-0.55-0.449-1-1-1h-7.996   c-0.549,0-1,0.45-1,1V26.949z M10.816,16.41c0,0.55,0.449,1,1,1h7.996c0.551,0,1-0.45,1-1v-4.437c0-0.55-0.449-1-1-1h-7.996   c-0.551,0-1,0.45-1,1V16.41z M10.816,37.485c0,0.55,0.449,1,1,1h7.996c0.551,0,1-0.45,1-1v-4.438c0-0.55-0.449-1-1-1h-7.996   c-0.551,0-1,0.45-1,1V37.485z M10.805,26.949c0,0.55,0.451,1,1,1h8.008c0.551,0,1-0.45,1-1V22.51c0-0.55-0.449-1-1-1h-8.008   c-0.549,0-1,0.45-1,1V26.949z" fill="#666666"/>
</g>
</svg>
